<svg width="39" height="17" viewBox="0 0 39 17" fill="none" xmlns="http://www.w3.org/2000/svg">
<path d="M7.67067 2.86789C8.11767 2.31091 8.421 1.56305 8.341 0.798828C7.68666 0.831242 6.88816 1.22888 6.42587 1.7863C6.01078 2.26364 5.6434 3.04282 5.73917 3.775C6.47371 3.83847 7.20756 3.40924 7.67067 2.86789Z" fill="#000008"/>
<path d="M8.33268 3.91797C7.26596 3.85467 6.359 4.52109 5.84958 4.52109C5.33989 4.52109 4.55982 3.94987 3.7161 3.96527C2.61795 3.98133 1.599 4.59988 1.04174 5.58367C-0.10446 7.55173 0.739255 10.471 1.85387 12.0739C2.39515 12.8669 3.04749 13.7401 3.90704 13.7087C4.71918 13.6769 5.0375 13.1848 6.02469 13.1848C7.01115 13.1848 7.29789 13.7087 8.15758 13.6928C9.04911 13.6769 9.60647 12.8994 10.1477 12.1057C10.7687 11.2017 11.0229 10.3288 11.0389 10.2809C11.0229 10.2651 9.31977 9.61417 9.30398 7.66247C9.2879 6.02828 10.6411 5.25097 10.7048 5.20277C9.94063 4.07683 8.74662 3.94987 8.33268 3.91797Z" fill="#000008"/>
<path d="M17.6208 1.70636C19.9393 1.70636 21.5537 3.29847 21.5537 5.61645C21.5537 7.94271 19.906 9.54309 17.5626 9.54309H14.9956V13.6099H13.141V1.70636L17.6208 1.70636ZM14.9956 7.9922H17.1237C18.7385 7.9922 19.6575 7.12614 19.6575 5.62473C19.6575 4.12348 18.7385 3.26553 17.132 3.26553H14.9956V7.9922Z" fill="#000008"/>
<path d="M22.0383 11.1434C22.0383 9.62549 23.2058 8.6934 25.2761 8.57788L27.6607 8.4377V7.76957C27.6607 6.80438 27.0065 6.22695 25.9137 6.22695C24.8784 6.22695 24.2325 6.7218 24.0753 7.49733H22.3861C22.4855 5.92988 23.8268 4.77503 25.9798 4.77503C28.0913 4.77503 29.441 5.88867 29.441 7.62923V13.6099H27.7268V12.1828H27.6856C27.1806 13.148 26.0792 13.7583 24.9365 13.7583C23.2307 13.7583 22.0383 12.7025 22.0383 11.1434ZM27.6607 10.3598V9.67514L25.516 9.80704C24.4478 9.88135 23.8434 10.3515 23.8434 11.094C23.8434 11.8528 24.4727 12.3478 25.4333 12.3478C26.6836 12.3478 27.6607 11.4898 27.6607 10.3598Z" fill="#000008"/>
<path d="M31.0592 16.8024V15.3587C31.1915 15.3917 31.4895 15.3917 31.6387 15.3917C32.4667 15.3917 32.9139 15.0453 33.187 14.1544C33.187 14.1378 33.3445 13.6264 33.3445 13.6182L30.198 4.93176H32.1354L34.3383 11.9931H34.3712L36.574 4.93176H38.4619L35.1992 14.0635C34.4542 16.1672 33.593 16.8436 31.7879 16.8436C31.6387 16.8436 31.1915 16.827 31.0592 16.8024Z" fill="#000008"/>
</svg>
