<svg width="17" height="16" viewBox="0 0 17 16" fill="none" xmlns="http://www.w3.org/2000/svg">
<path d="M8.50004 14.4333C8.29337 14.4333 8.09337 14.4066 7.92671 14.3467C5.38004 13.4733 1.33337 10.3733 1.33337 5.79332C1.33337 3.45998 3.22004 1.56665 5.54004 1.56665C6.66671 1.56665 7.72004 2.00665 8.50004 2.79332C9.28004 2.00665 10.3334 1.56665 11.46 1.56665C13.78 1.56665 15.6667 3.46665 15.6667 5.79332C15.6667 10.38 11.62 13.4733 9.07337 14.3467C8.90671 14.4066 8.70671 14.4333 8.50004 14.4333ZM5.54004 2.56665C3.77337 2.56665 2.33337 4.01332 2.33337 5.79332C2.33337 10.3466 6.71337 12.88 8.25337 13.4066C8.37337 13.4466 8.63337 13.4466 8.75337 13.4066C10.2867 12.88 14.6734 10.3533 14.6734 5.79332C14.6734 4.01332 13.2334 2.56665 11.4667 2.56665C10.4534 2.56665 9.51337 3.03998 8.90671 3.85998C8.72004 4.11332 8.29337 4.11332 8.10671 3.85998C7.48671 3.03332 6.55337 2.56665 5.54004 2.56665Z" fill="#292D32"/>
</svg>
