<svg width="21" height="20" viewBox="0 0 21 20" fill="none" xmlns="http://www.w3.org/2000/svg">
<path d="M10.5167 17.1086C8.57505 17.1086 6.63339 16.8003 4.79172 16.1836C4.09172 15.9419 3.55839 15.4503 3.32505 14.8086C3.08339 14.1669 3.16672 13.4586 3.55005 12.8253L4.50839 11.2336C4.70839 10.9003 4.89172 10.2336 4.89172 9.84193V7.43359C4.89172 4.33359 7.41672 1.80859 10.5167 1.80859C13.6167 1.80859 16.1417 4.33359 16.1417 7.43359V9.84193C16.1417 10.2253 16.3251 10.9003 16.5251 11.2419L17.4751 12.8253C17.8334 13.4253 17.9001 14.1503 17.6584 14.8086C17.4167 15.4669 16.8917 15.9669 16.2334 16.1836C14.4001 16.8003 12.4584 17.1086 10.5167 17.1086ZM10.5167 3.05859C8.10839 3.05859 6.14172 5.01693 6.14172 7.43359V9.84193C6.14172 10.4503 5.89172 11.3503 5.58339 11.8753L4.62505 13.4669C4.44172 13.7753 4.39172 14.1003 4.50005 14.3753C4.60005 14.6586 4.85005 14.8753 5.19172 14.9919C8.67505 16.1586 12.3667 16.1586 15.8501 14.9919C16.1501 14.8919 16.3834 14.6669 16.4917 14.3669C16.6001 14.0669 16.5751 13.7419 16.4084 13.4669L15.4501 11.8753C15.1334 11.3336 14.8917 10.4419 14.8917 9.83359V7.43359C14.8917 5.01693 12.9334 3.05859 10.5167 3.05859Z" fill="#1B5E37"/>
<path d="M12.0667 3.28242C12.0084 3.28242 11.9501 3.27409 11.8917 3.25742C11.6501 3.19076 11.4167 3.14076 11.1917 3.10742C10.4834 3.01576 9.80005 3.06576 9.15839 3.25742C8.92505 3.33242 8.67505 3.25742 8.51672 3.08242C8.35839 2.90742 8.30839 2.65742 8.40005 2.43242C8.74172 1.55742 9.57505 0.982422 10.5251 0.982422C11.4751 0.982422 12.3084 1.54909 12.6501 2.43242C12.7334 2.65742 12.6917 2.90742 12.5334 3.08242C12.4084 3.21576 12.2334 3.28242 12.0667 3.28242Z" fill="#1B5E37"/>
<path d="M10.5167 19.0078C9.69172 19.0078 8.89172 18.6745 8.30839 18.0911C7.72506 17.5078 7.39172 16.7078 7.39172 15.8828H8.64172C8.64172 16.3745 8.84172 16.8578 9.19172 17.2078C9.54172 17.5578 10.0251 17.7578 10.5167 17.7578C11.5501 17.7578 12.3917 16.9161 12.3917 15.8828H13.6417C13.6417 17.6078 12.2417 19.0078 10.5167 19.0078Z" fill="#1B5E37"/>
</svg>
