<svg width="51" height="14" viewBox="0 0 51 14" fill="none" xmlns="http://www.w3.org/2000/svg">
<path fill-rule="evenodd" clip-rule="evenodd" d="M6.65669 0.243585H2.79389C2.52955 0.243585 2.30473 0.434951 2.26351 0.694793L0.701196 10.5615C0.670143 10.7563 0.821512 10.9318 1.01977 10.9318H2.86391C3.12825 10.9318 3.35307 10.7404 3.39429 10.48L3.81566 7.81886C3.85631 7.55824 4.08167 7.36713 4.34546 7.36713H5.56829C8.11286 7.36713 9.58132 6.14056 9.96503 3.71007C10.1378 2.64674 9.97235 1.81123 9.47232 1.22593C8.92341 0.583617 7.9495 0.243585 6.65669 0.243585ZM7.10235 3.84728C6.89115 5.22799 5.83208 5.22798 4.80806 5.22798H4.22515L4.63408 2.64934C4.65836 2.49365 4.79392 2.37883 4.95208 2.37883H5.21924C5.91679 2.37883 6.57488 2.37883 6.91494 2.77484C7.11752 3.01125 7.17972 3.36222 7.10235 3.84728ZM18.2036 3.80302H16.3538C16.1962 3.80302 16.06 3.91784 16.0357 4.0738L15.9539 4.58905L15.8245 4.40237C15.424 3.82332 14.5311 3.62987 13.6398 3.62987C11.5955 3.62987 9.84976 5.17201 9.5097 7.33537C9.333 8.41432 9.58419 9.44614 10.1987 10.1658C10.7625 10.8274 11.5691 11.1031 12.5287 11.1031C14.1757 11.1031 15.0892 10.0481 15.0892 10.0481L15.0066 10.5602C14.9755 10.756 15.1268 10.9315 15.3239 10.9315H16.9902C17.2553 10.9315 17.4788 10.7401 17.5206 10.4798L18.5204 4.17325C18.552 3.97928 18.4012 3.80302 18.2036 3.80302ZM15.625 7.38926C15.4465 8.44191 14.6077 9.14854 13.5381 9.14854C13.001 9.14854 12.5715 8.97696 12.296 8.65177C12.0226 8.32892 11.9186 7.86912 12.0057 7.35724C12.1724 6.31344 13.0253 5.5839 14.0787 5.5839C14.6038 5.5839 15.0309 5.75756 15.3122 6.08562C15.5939 6.41706 15.7058 6.87947 15.625 7.38926ZM26.1964 3.80276H28.0554C28.3157 3.80276 28.4676 4.09358 28.3197 4.3063L22.1371 13.1956C22.037 13.3396 21.8721 13.4253 21.6959 13.4253H19.8393C19.5779 13.4253 19.4253 13.1321 19.5766 12.9189L21.5017 10.2121L19.4543 4.22688C19.3835 4.01885 19.5377 3.80276 19.7599 3.80276H21.5864C21.8237 3.80276 22.0331 3.95793 22.1016 4.18419L23.1882 7.79907L25.7521 4.03734C25.8525 3.8905 26.0192 3.80276 26.1964 3.80276Z" fill="#253B80"/>
<path fill-rule="evenodd" clip-rule="evenodd" d="M46.3514 10.5607L47.9367 0.513484C47.9611 0.357526 48.0967 0.242708 48.2543 0.242188H50.0391C50.2361 0.242188 50.3875 0.418192 50.3564 0.612944L48.793 10.4792C48.7523 10.7395 48.5275 10.9309 48.2627 10.9309H46.6688C46.4717 10.9309 46.3203 10.7554 46.3514 10.5607ZM34.2104 0.242704H30.3469C30.0832 0.242704 29.8584 0.434072 29.8171 0.693914L28.2548 10.5607C28.2237 10.7554 28.375 10.9309 28.5724 10.9309H30.5547C30.739 10.9309 30.8966 10.7971 30.9254 10.6148L31.3687 7.81799C31.4094 7.55736 31.6348 7.36626 31.8985 7.36626H33.1207C35.6658 7.36626 37.134 6.13968 37.518 3.70918C37.6913 2.64586 37.5248 1.81035 37.025 1.22506C36.4764 0.58274 35.5032 0.242704 34.2104 0.242704ZM34.6561 3.8464C34.4454 5.22711 33.3863 5.22711 32.3617 5.22711H31.7793L32.1889 2.64847C32.2132 2.49277 32.3476 2.37795 32.5062 2.37795H32.7733C33.4705 2.37795 34.1291 2.37795 34.4689 2.77396C34.6718 3.01037 34.7335 3.36134 34.6561 3.8464ZM45.7563 3.80214H43.9078C43.7489 3.80214 43.614 3.91696 43.5902 4.07291L43.5084 4.58818L43.3785 4.40149C42.978 3.82245 42.0857 3.629 41.1943 3.629C39.1501 3.629 37.4048 5.17113 37.0647 7.33449C36.8886 8.41344 37.1387 9.44526 37.7532 10.1649C38.3181 10.8265 39.1237 11.1022 40.0832 11.1022C41.7302 11.1022 42.6435 10.0472 42.6435 10.0472L42.5611 10.5594C42.53 10.7551 42.6814 10.9306 42.8797 10.9306H44.5453C44.809 10.9306 45.0338 10.7393 45.0751 10.4789L46.0754 4.17237C46.106 3.9784 45.9547 3.80214 45.7563 3.80214ZM43.178 7.38838C43.0005 8.44103 42.1607 9.14766 41.0908 9.14766C40.5547 9.14766 40.1245 8.97608 39.8487 8.65089C39.5753 8.32804 39.4726 7.86824 39.5586 7.35636C39.7262 6.31257 40.578 5.58302 41.6314 5.58302C42.1568 5.58302 42.5836 5.75669 42.8651 6.08474C43.1479 6.41619 43.2598 6.87859 43.178 7.38838Z" fill="#179BD7"/>
</svg>
