<svg width="24" height="24" viewBox="0 0 24 24" fill="none" xmlns="http://www.w3.org/2000/svg">
<path d="M12.4122 10.5869C12.3985 11.6665 13.3744 12.2689 14.1095 12.6272C14.8647 12.9947 15.1184 13.2303 15.1154 13.559C15.1098 14.062 14.513 14.284 13.9545 14.2926C12.9802 14.3077 12.4136 14.0296 11.9633 13.8192L11.6122 15.4616C12.0641 15.6698 12.9008 15.8514 13.7685 15.8594C15.8052 15.8594 17.1377 14.854 17.1449 13.2952C17.1529 11.3169 14.4085 11.2074 14.4273 10.3232C14.4338 10.055 14.6896 9.76891 15.2502 9.69616C15.5277 9.65941 16.2937 9.63128 17.1623 10.0312L17.5031 8.44216C17.0361 8.27209 16.4358 8.10925 15.6884 8.10925C13.7714 8.10925 12.4231 9.12831 12.4122 10.5869ZM20.7786 8.24612C20.4067 8.24612 20.0933 8.46306 19.9534 8.79597L17.044 15.7427H19.0793L19.4842 14.6234H21.9713L22.2062 15.7427H24L22.4347 8.24612H20.7786ZM21.0633 10.2712L21.6506 13.0862H20.0421L21.0633 10.2712ZM9.94462 8.24622L8.34037 15.7426H10.2798L11.8833 8.24603H9.94462V8.24622ZM7.07559 8.24603L5.05697 13.3486L4.24041 9.01009C4.14459 8.52578 3.76622 8.24612 3.34603 8.24612H0.0462187L0 8.46381C0.677437 8.61081 1.44712 8.84791 1.91344 9.10159C2.19881 9.25656 2.28019 9.39203 2.37394 9.76028L3.92053 15.7427L5.97 15.7427L9.11213 8.24612L7.07559 8.24612" fill="url(#paint0_linear_48244_2170)"/>
<defs>
<linearGradient id="paint0_linear_48244_2170" x1="11.0338" y1="16.0148" x2="11.2581" y2="8.05535" gradientUnits="userSpaceOnUse">
<stop stop-color="#222357"/>
<stop offset="1" stop-color="#254AA5"/>
</linearGradient>
</defs>
</svg>
